<?xml version="1.0"?>
<svg id="Layer_1" data-name="Layer 1" xmlns="http://www.w3.org/2000/svg" viewBox="0 0 311 311">
  <defs>
    
  </defs>
  
  <path fill="#000000" d="M92.07,107.88c-.79-.53-1.36-1.05-1.37-1.86,0-2.16,2.1-5.72,5.99-9.65,11.56-11.59,38.49-26.6,66.36-26.56,14.1,0,25.58,3.5,33.18,10,6.59,5.61,10.19,13.61,10.19,22.45.02,13.63-6.37,23.02-10.26,28.71-2.03,2.9-3.2,4.55-3.21,6.51-.01,1.51.71,2.77,1.92,3.99,1.2,1.22,2.88,2.45,4.88,4,8.15,6.01,21.5,15.79,21.5,36.07,0,22.97-12.19,37-22.43,44.72-12.63,9.49-29.44,14.97-46.06,14.97-41.49,0-62.92-23.08-62.92-45.7,0-6.73,2.46-13.55,7.03-18.72,4.61-5.16,11.23-8.66,19.55-8.66h.03c4.64,0,10.56,1.11,15.21,4.23,4.67,3.12,8.17,8.2,8.17,16.49v.7c-.41-.92-1-1.93-1.81-2.93-1.68-2.06-4.41-3.89-8.33-3.89-4.46,0-8.26,3.7-8.26,8.02,0,.85-.07,1.34-.2,1.6-.02.09-.07.11-.07.17-1.09-.06-2.39-.78-3.43-2.25-1.03-1.51-1.77-3.72-1.78-6.58,0-.54,0-1.12.09-1.77l.13-1.36-.9,1.03c-4.2,4.67-5.71,8.89-5.71,12.54,0,5.96,4.02,10.19,6.39,12.38.46.45.96.91,1.39,1.38.22.19.41.42.52.58.08.05.1.13.12.19h.01c-.03.25-.46.83-1.58,1.28-1.18.52-3.09.87-5.8.87-.97,0-2-.08-3.15-.12l-1.02-.1.64.79c7.94,9.47,16.77,12.06,24.34,12.07,5.62,0,10.61-1.42,14.18-2.4,1.53-.47,3.23-1.08,4.21-1.08.37,0,.56.09.6.21.1.12.18.35.14.71.06,1.12-.61,3.08-1.69,5.11-1.12,2.09-2.62,4.27-4.28,5.77l-1.03.97,1.37-.23c23.21-2.93,31-16.4,34.79-23.37.67-1.16,1.24-2.26,1.78-2.99.5-.8,1.04-1.13,1.19-1.1.18,0,.55.23.92.76,1.17,1.66,2.1,5.93,2.1,10.36-.01,1.94-.16,3.84-.56,5.66l-.3,1.37.97-.96c8.79-8.11,11.26-16.65,11.18-23.75,0-5.45-1.4-10.05-2.34-13-.55-1.66-1-3.18-.99-3.87,0-.58.14-.88.24-1.06.07-.09.29-.23.65-.33,3.7.05,8.08,1.37,13.36,3.87l1.05.48-.49-1.02c-7.1-16.75-23.03-23.97-38.58-27.87-7.78-1.96-15.47-3.12-21.92-4.24-4.7-.84-8.83-1.62-11.73-2.68-.48-.22-.96-.41-1.45-.66,8.84-1.13,19.56-7.34,29.05-13.47,3.61-2.31,6.35-4.58,8.57-6.44,1.16-.97,2.22-1.85,3.17-2.46.89-.7,1.65-1.05,1.97-1.04.36,0,.62.16.9.45.84.92,1.38,3.54,1.39,6.39,0,2.27-.31,4.72-.87,6.69l-.32,1.12.97-.63c7.57-4.89,11.16-12.22,11.19-19.1-.02-6.93-3.88-11.24-6.34-14.02-.41-.42-.79-.91-1.17-1.32-.28-.36-.5-.76-.58-.87.06-.16.27-.52.68-.82,1.6-1.21,4.29-1.92,7.44-1.91,1.59-.02,3.26.14,5,.57l1.23.27-.76-.97c-6.52-8.31-14-10.76-20.62-10.75-5.25,0-9.96,1.48-13.45,2.62-1.68.53-3.99,1.27-4.98,1.22-.17.02-.21,0-.26,0,0-1.2.86-3.25,2.54-5.42,1.66-2.22,4.23-4.63,7.47-6.58l1.13-.66-1.35-.11c-.6-.01-1.21-.09-1.79-.09-13.39.03-30.66,9.76-43.34,16.34-7.92,4.08-24.57,13.7-29.58,10.77M145.06,197.11c8.05-.01,14.72-2.46,19.91-7.2,5.53-5.05,8.69-12.59,8.69-20.64-.02-3.87-1.25-7.14-3.45-9.6,11.96,2.83,24.39,9.02,31.26,18.25-3.06-.98-5.24-1.27-7.45-1.27-2.22.01-4.01,2.33-4.01,4.98,0,1.39.5,2.97,1.18,4.97.99,3.08,2.28,7.02,2.28,11.76,0,4.31-1.11,9.38-4.5,14.92-.13-4.5-1.37-8.1-2.94-10.05-1.19-1.46-2.51-1.83-3.37-1.84-1.44,0-2.55.65-3.51,1.77-.89,1.06-1.72,2.53-2.62,4.23-3.31,5.88-8.47,15.3-24.69,20.13,1.43-2.49,2.21-5.05,2.21-7.13,0-.83-.08-1.59-.39-2.21-.47-1.23-1.59-1.98-2.76-2h-.05c-1.77.06-3.84.63-6.23,1.31-3.74,1-8.28,2.32-13.25,2.32-5.14-.01-10.77-1.34-16.61-5.74,2.05-.27,3.84-.97,5.11-2.07,1.04-.94,1.76-2.11,1.75-3.38-.02-1.9-1.49-3.2-3.19-4.74-2.5-2.38-5.44-5.11-5.45-9.76.01-1.29.25-2.82.81-4.51.57,1.47,1.34,2.79,2.28,3.9,1.51,1.64,3.37,2.61,5.12,2.62,1.88.04,2.99-.85,3.44-1.97.49-1.15.44-2.39.52-3.41-.02-1.14.46-2.24,1.31-3.04.85-.8,2.03-1.33,3.2-1.34,2.73,0,4.81,1.54,6.27,3.8,1.4,2.26,2.16,5.26,2.16,8.11,0,1.73-.28,3.44-.87,4.79l-.6,1.48,1.28-.96c2.42-1.91,4.34-4.58,5.21-6.57.64.05,1.3.05,1.92.06M132.03,142.15c2.5-2.48,7.66-6.05,11.53-8.49,3.8-2.44,7.18-4.62,9.68-6.81,2.51-2.17,4.14-4.39,4.14-6.97,0-2-.78-3.86-2.22-5.3-2.7-2.62-7.35-3.83-13.19-4.46-5.81-.68-12.84-.7-20.08-.7l-2.02.02c-5.99-.01-10.78-.08-14.6-.26,5.29-2.07,11.42-5.3,18.12-8.88,10.82-5.79,22.83-12.26,34.12-15.07-2.6,2.95-4.28,6.31-4.28,9.2,0,.73.17,1.5.77,2.09.52.61,1.39,1,2.53,1,2.05-.06,4.27-.8,6.89-1.65,3.51-1.15,7.6-2.45,12.13-2.46,3.89,0,8.13,1,12.63,3.98-2.97.2-5.46,1.1-6.98,2.29-1.66,1.28-2.03,2.74-2.04,3.79,0,1.64,1.11,2.88,2.59,4.54,2.31,2.59,5.37,6.06,5.37,11.6,0,4.02-1.57,8.33-3.86,11.56v-.71c0-2.78-.59-5.95-2.16-7.74-.88-1.07-2.13-1.67-3.53-1.66-2.37,0-4.4,1.81-7.47,4.34-2.14,1.76-4.83,4.04-8.21,6.12-14.26,9.02-21.9,12.46-27.29,12.93-2.04.17-5.02.14-2.56-2.3M203.44,140.51c-1.5-1.06-3.3-2.43-4.1-3.22.45-.75,1.2-1.91,1.88-2.84,3.99-5.77,11.39-16.64,11.4-32.18,0-8.93-3.25-18.6-11.07-26.03-7.84-7.46-20.31-12.63-38.52-12.63-17.27,0-36.73,5.69-53.53,15.63-7.53,4.47-13.79,9.31-18.11,13.9-4.31,4.64-6.8,9.07-6.82,12.89-.03,1.85.68,3.51,2.01,4.85,2.49,2.42,6.81,3.56,12.36,4.16,5.56.59,12.38.58,19.65.57h1.3c11.26.01,19.19.29,24.28,1.05,2.56.41,4.36.87,5.51,1.42,1.13.63,1.49,1.18,1.5,1.8.02.25-.28.89-.99,1.54-2.43,2.47-8.78,6.07-14.52,10.02-2.9,2-5.61,4.07-7.66,6.21-2,2.13-3.36,4.32-3.39,6.59v.09c.03,2.88,1.52,5.16,3.83,6.93,6.98,5.32,21.43,6.76,29.01,8.12,4.65.82,7.11,2.52,8.45,4.31,1.37,1.82,1.6,3.83,1.6,5.57,0,6.47-2.4,12.18-6.72,16.06-3.82,3.52-8.46,5.84-15.18,5.86-.28,0-.56-.02-.84-.03.14-1.27.26-2.56.25-3.77,0-7.62-2.99-13.98-8.1-18.41-5.07-4.37-12.21-6.91-20.52-6.91-10.23,0-18.51,4.28-24.11,10.55-5.63,6.3-8.69,14.67-8.67,22.89-.02,12.92,5.96,25.94,17.55,35.66,11.65,9.74,28.93,16.22,51.55,16.21,17.98.02,36.04-5.89,49.76-16.22,11.35-8.53,24.88-24.09,24.88-49.64,0-23.41-15.66-34.95-23.93-41.02"></path>
</svg>