<?xml version="1.0"?>
<svg id="Layer_1" data-name="Layer 1" xmlns="http://www.w3.org/2000/svg" viewBox="0 0 311 311">
  <defs>
    
  </defs>
  
  <g>
    <polygon fill="#e60000" points="41.78 208.98 49.05 228.17 56.08 208.99 65.19 208.99 53.3 238.41 44.66 238.4 32.27 208.99 41.78 208.98"></polygon>
    <path fill="#e60000" d="M80.7,239.12c-9.44,0-15.34-6.65-15.35-15.42,0-8.8,5.92-15.42,15.34-15.41,9.52-.02,15.43,6.62,15.42,15.42,0,8.77-5.91,15.41-15.41,15.41M80.7,214.99c-4.57,0-6.79,4-6.8,8.79,0,4.72,2.23,8.63,6.79,8.63,4.57,0,6.8-3.92,6.8-8.64,0-4.78-2.24-8.79-6.79-8.78"></path>
    <path fill="#e60000" d="M128.89,197v40.83c-3.51.73-7.6,1.28-12.54,1.28-10.15,0-16.71-5.36-16.7-15.59,0-8.63,5.9-15.26,14.78-15.26,2.55,0,5.05.56,6.39,1.11v-12.38s8.07,0,8.07,0ZM120.81,216.34c-1.27-.71-3.27-1.36-5.75-1.36-4.4,0-6.87,3.75-6.87,8.55,0,5.83,3.75,8.79,8.31,8.79,1.59,0,3.2-.08,4.3-.33v-15.65Z"></path>
    <path fill="#e60000" d="M132.64,224.34c0-9.28,6.88-16.07,16.71-16.07,4.86,0,9.82,1.2,12.63,2.32v27.81s-7.2,0-7.2,0l-.56-2.57c-1.68,1.92-4.08,3.29-7.91,3.29-7.75,0-13.67-5.66-13.67-14.78M153.83,215.78c-.9-.24-2.65-.57-4.64-.56-3.92,0-8,3.02-8,8.79,0,5.67,3.21,8.4,6.81,8.4,2.72,0,4.86-1.45,5.82-3.04v-13.58Z"></path>
    <path fill="#e60000" d="M177.57,196.28c2.16,0,4.78.4,6.22.71v7.04c-1.27-.15-3.44-.32-4.55-.32-1.93,0-2.63.32-3.27.88-.57.57-.72,1.36-.71,2.64v1.76s7.42,0,7.42,0v7.11s-7.44,0-7.44,0v22.3s-8.08-.01-8.08-.01v-31.79c0-3.45,1.13-6,2.97-7.76,1.75-1.69,4.48-2.55,7.44-2.56"></path>
    <path fill="#e60000" d="M198.82,239.13c-9.52-.01-15.43-6.65-15.42-15.42,0-8.8,5.9-15.43,15.42-15.42,9.51,0,15.34,6.61,15.34,15.42,0,8.78-5.83,15.42-15.34,15.43M198.81,214.98c-4.55,0-6.8,3.99-6.79,8.78,0,4.73,2.24,8.64,6.79,8.64,4.56,0,6.82-3.92,6.8-8.64,0-4.8-2.23-8.79-6.8-8.79"></path>
    <path fill="#e60000" d="M238.7,222.25c-.01-4.4-2.24-6.64-6.72-6.64-2.25,0-4.71.41-5.99.73v22.05s-8.08,0-8.08,0v-27.8c3.69-1.29,8.96-2.32,14.14-2.33,9.37.01,14.79,4.63,14.81,12.39l-.02,17.73h-8.14s0-16.13,0-16.13Z"></path>
    <path fill="#e60000" d="M250.61,223.53c0-9.36,5.9-15.35,14.44-15.35,8.65,0,13.67,6.71,13.68,14.94,0,1.11-.09,2.63-.15,3.27h-19.74c.39,4.15,3.12,6.39,8.48,6.41,4.55-.02,8.21-.96,10.3-1.62v5.35c-2.66,1.28-6.08,2.48-10.63,2.5-10.39-.01-16.39-5.54-16.38-15.52M271.31,220.5c-.26-3.04-2.4-5.52-6.26-5.53-3.81.01-5.73,2.1-6.05,5.53h12.31Z"></path>
    <g>
      <path fill="#e60000" d="M214.61,128.56c0,31.32-25.39,56.69-56.69,56.69-31.31,0-56.69-25.37-56.7-56.7,0-31.3,25.38-56.68,56.7-56.68,31.3,0,56.69,25.37,56.69,56.69"></path>
      <path fill="#ffffff" d="M158.38,160.18c-15.58.05-31.79-13.24-31.85-34.59-.05-14.12,7.56-27.69,17.3-35.77,9.49-7.86,22.51-12.92,34.31-12.94,1.51,0,3.1.12,4.07.45-10.31,2.14-18.52,11.74-18.5,22.63,0,.36.05.75.08.91,17.26,4.22,25.1,14.64,25.14,29.05.05,14.41-11.34,30.2-30.56,30.26"></path>
    </g>
  </g>
</svg>